<?xml version="1.0" encoding="utf-8"?>
<!-- Generator: Adobe Illustrator 17.0.1, SVG Export Plug-In . SVG Version: 6.00 Build 0)  -->
<!DOCTYPE svg PUBLIC "-//W3C//DTD SVG 1.1//EN" "http://www.w3.org/Graphics/SVG/1.1/DTD/svg11.dtd">
<svg version="1.1" id="Layer_1" xmlns="http://www.w3.org/2000/svg" xmlns:xlink="http://www.w3.org/1999/xlink" x="0px" y="0px"
	 width="28px" height="28px" viewBox="0 0 28 28" enable-background="new 0 0 28 28" xml:space="preserve">
<g>
	<path fill="#FFFFFF" d="M13.91,15.222c-0.522-0.37-0.997-0.912-1.006-1.079c0-0.305,0.028-0.449,0.709-0.98
		c0.881-0.69,1.366-1.596,1.366-2.554c0-0.868-0.265-1.64-0.718-2.181h0.35c0.073,0,0.143-0.023,0.202-0.065l0.978-0.707
		c0.121-0.088,0.173-0.243,0.125-0.385c-0.046-0.142-0.177-0.238-0.326-0.238h-4.372c-0.478,0-0.964,0.084-1.441,0.249
		C8.183,7.83,7.069,9.187,7.069,10.581c0,1.974,1.53,3.471,3.574,3.518c-0.04,0.156-0.06,0.31-0.06,0.461
		c0,0.303,0.078,0.592,0.236,0.871c-0.018,0-0.037,0-0.057,0c-1.949,0-3.708,0.956-4.377,2.379
		c-0.174,0.371-0.262,0.745-0.262,1.115c0,0.358,0.092,0.704,0.273,1.029c0.419,0.751,1.321,1.334,2.539,1.641
		c0.629,0.159,1.305,0.24,2.007,0.24c0.631,0,1.231-0.082,1.788-0.243c1.733-0.503,2.853-1.779,2.853-3.25
		C15.584,16.93,15.13,16.085,13.91,15.222z M9.325,10.527C9.231,9.804,9.382,9.154,9.743,8.743c0.232-0.266,0.537-0.405,0.879-0.405
		h0.039c0.966,0.028,1.891,1.105,2.062,2.401c0.095,0.725-0.065,1.407-0.431,1.822c-0.232,0.266-0.533,0.406-0.89,0.406h-0.015
		C10.439,12.939,9.495,11.821,9.325,10.527z M10.934,20.451c-1.428,0-2.546-0.877-2.546-1.994c0-1.028,1.306-1.931,2.794-1.931
		h0.041c0.323,0.005,0.64,0.052,0.938,0.144c0.102,0.07,0.2,0.137,0.295,0.201c0.689,0.469,1.145,0.779,1.273,1.278
		c0.029,0.125,0.043,0.25,0.043,0.372C13.772,19.802,12.817,20.451,10.934,20.451z"/>
	<path fill="#FFFFFF" d="M22.605,14.095v-0.709c0-0.189-0.155-0.344-0.344-0.344h-2.484v-2.484c0-0.19-0.154-0.344-0.344-0.344
		h-0.707c-0.19,0-0.344,0.154-0.344,0.344v2.484h-2.485c-0.188,0-0.343,0.155-0.343,0.344v0.709c0,0.189,0.155,0.343,0.343,0.343
		h2.486v2.486c0,0.19,0.154,0.344,0.344,0.344h0.707c0.19,0,0.344-0.154,0.344-0.344v-2.486h2.484
		C22.451,14.438,22.605,14.284,22.605,14.095L22.605,14.095z"/>
</g>
</svg>
