<?xml version="1.0" encoding="utf-8"?>
<!-- Generator: Adobe Illustrator 17.0.1, SVG Export Plug-In . SVG Version: 6.00 Build 0)  -->
<!DOCTYPE svg PUBLIC "-//W3C//DTD SVG 1.1//EN" "http://www.w3.org/Graphics/SVG/1.1/DTD/svg11.dtd">
<svg version="1.1" id="Layer_1" xmlns="http://www.w3.org/2000/svg" xmlns:xlink="http://www.w3.org/1999/xlink" x="0px" y="0px"
	 width="190px" height="25px" viewBox="0 0 190 25" enable-background="new 0 0 190 25" xml:space="preserve">
<g>
	<g>
		<path d="M34.448,20.855h5.568V4.03h-5.568V20.855z M58.521,12.671L51.872,4.03h-4.656v16.826h5.065v-8.593l6.625,8.593h4.656V4.03
			h-5.041V12.671z M69.679,8.422h4.776v12.433h5.568V8.422h4.8V4.03H69.679V8.422z M96.512,14.543h7.873v-4.224h-7.873V8.254h8.664
			V4.03H90.943v16.826h14.449v-4.224h-8.881V14.543z M127.616,10.055c0-3.84-2.616-6.025-7.176-6.025h-8.137v16.826h5.568v-4.368
			h2.089l2.016,4.368h6.288l-3.312-5.472C126.68,14.327,127.616,12.503,127.616,10.055z M120.44,12.263h-2.568V8.254h2.568
			c1.2,0,1.896,0.72,1.896,1.968C122.336,11.519,121.64,12.263,120.44,12.263z M134.503,20.855h5.568V4.03h-5.568V20.855z
			 M155.671,3.862c-5.353,0-9.241,3.576-9.241,8.569c0,5.017,3.888,8.665,9.241,8.665c5.352,0,9.241-3.672,9.241-8.665
			C164.912,7.462,161.023,3.862,155.671,3.862z M155.743,16.463c-1.92,0-3.6-1.704-3.6-4.008c0-2.305,1.656-3.96,3.6-3.96
			c1.92,0,3.456,1.656,3.456,3.96C159.199,14.759,157.663,16.463,155.743,16.463z M183.919,15.383
			c1.728-1.056,2.664-2.88,2.664-5.328c0-3.84-2.616-6.025-7.176-6.025h-8.137v16.826h5.568v-4.368h2.088l2.016,4.368h6.288
			L183.919,15.383z M179.407,12.263h-2.568V8.254h2.568c1.2,0,1.896,0.72,1.896,1.968C181.303,11.519,180.607,12.263,179.407,12.263
			z M2.769,11.187h9.188V2H2.769V11.187z M2.769,23h9.188v-9.188H2.769V23z M14.581,23h9.188v-9.188h-9.188V23z M14.581,11.187
			h9.188V2h-9.188V11.187z"/>
	</g>
</g>
</svg>
