<?xml version="1.0" encoding="utf-8"?>
<!-- Generator: Adobe Illustrator 17.0.1, SVG Export Plug-In . SVG Version: 6.00 Build 0)  -->
<!DOCTYPE svg PUBLIC "-//W3C//DTD SVG 1.1//EN" "http://www.w3.org/Graphics/SVG/1.1/DTD/svg11.dtd">
<svg version="1.1" id="Layer_1" xmlns="http://www.w3.org/2000/svg" xmlns:xlink="http://www.w3.org/1999/xlink" x="0px" y="0px"
	 width="28px" height="28px" viewBox="2 2 28 28" enable-background="new 2 2 28 28" xml:space="preserve">
<title>pinterest</title>
<path fill="#FFFFFF" d="M12.006,25.706c-0.094-0.865-0.183-2.2,0.04-3.144c0.198-0.855,1.285-5.447,1.285-5.447
	s-0.326-0.657-0.326-1.626c0-1.523,0.885-2.665,1.982-2.665c0.934,0,1.389,0.702,1.389,1.542c0,0.94-0.598,2.348-0.91,3.649
	c-0.262,1.092,0.544,1.982,1.621,1.982c1.947,0,3.445-2.056,3.445-5.023c0-2.625-1.888-4.459-4.577-4.459
	c-3.12,0-4.948,2.338-4.948,4.761c0,0.944,0.361,1.953,0.815,2.502c0.089,0.108,0.104,0.202,0.074,0.316
	c-0.084,0.346-0.267,1.092-0.306,1.246c-0.05,0.202-0.158,0.242-0.366,0.149C9.856,18.85,9,16.849,9,15.241
	c0-3.46,2.511-6.634,7.242-6.634c3.801,0,6.758,2.709,6.758,6.332c0,3.777-2.382,6.822-5.69,6.822c-1.112,0-2.155-0.578-2.511-1.261
	c0,0-0.549,2.091-0.683,2.605c-0.248,0.954-0.914,2.145-1.364,2.872C12.752,25.979,12.213,26.497,12.006,25.706z"/>
</svg>
