<?xml version="1.0" encoding="utf-8"?>
<!-- Generator: Adobe Illustrator 17.0.1, SVG Export Plug-In . SVG Version: 6.00 Build 0)  -->
<!DOCTYPE svg PUBLIC "-//W3C//DTD SVG 1.1//EN" "http://www.w3.org/Graphics/SVG/1.1/DTD/svg11.dtd">
<svg version="1.1" id="Layer_1" xmlns="http://www.w3.org/2000/svg" xmlns:xlink="http://www.w3.org/1999/xlink" x="0px" y="0px"
	 width="42px" height="42px" viewBox="0 0 42 42" enable-background="new 0 0 42 42" xml:space="preserve">
<path fill="#010101" d="M10.625,32.191c0.027-0.181,0.112-0.325,0.254-0.43l3.154-2.338c0.241-0.179,0.499-0.174,0.773,0.013
	c1.272,0.754,2.037,1.18,2.295,1.277c1.692,0.68,3.437,0.905,5.235,0.675c1.798-0.23,3.431-0.889,4.898-1.977
	c1.062-0.787,1.94-1.744,2.633-2.869c0.693-1.125,1.161-2.337,1.403-3.636l-3.919-0.582c-0.362-0.054-0.649-0.223-0.86-0.508
	c-0.211-0.285-0.29-0.608-0.236-0.971c0.054-0.362,0.223-0.649,0.508-0.86l7.359-5.455c0.285-0.211,0.608-0.29,0.971-0.236
	c0.362,0.054,0.649,0.223,0.86,0.508l5.455,7.359c0.211,0.285,0.29,0.608,0.236,0.971c-0.054,0.362-0.223,0.649-0.508,0.86
	s-0.608,0.29-0.971,0.236l-3.69-0.548c-0.344,1.986-1.04,3.834-2.088,5.544c-1.048,1.71-2.372,3.158-3.971,4.344
	c-3.001,2.224-6.294,3.253-9.88,3.086c-3.586-0.167-6.817-1.459-9.693-3.874c-0.027-0.014-0.061-0.048-0.102-0.103
	C10.638,32.534,10.598,32.372,10.625,32.191z M0.355,18.868c0.054-0.362,0.223-0.649,0.508-0.86c0.285-0.211,0.608-0.29,0.971-0.236
	l3.706,0.536c0.352-1.975,1.058-3.826,2.119-5.554s2.391-3.185,3.989-4.37c3.012-2.232,6.316-3.269,9.912-3.11
	c3.597,0.159,6.839,1.442,9.726,3.85l0.085,0.115c0.106,0.142,0.145,0.304,0.118,0.485c-0.027,0.181-0.112,0.325-0.254,0.43
	l-3.269,2.423c-0.241,0.179-0.499,0.174-0.773-0.013c-1.272-0.754-2.037-1.18-2.295-1.277c-1.692-0.68-3.437-0.905-5.235-0.675
	c-1.798,0.23-3.431,0.889-4.898,1.977c-2.201,1.632-3.556,3.799-4.065,6.5l3.947,0.586c0.362,0.054,0.649,0.223,0.86,0.508
	s0.29,0.608,0.236,0.971c-0.054,0.362-0.223,0.649-0.508,0.86L7.877,27.47c-0.285,0.211-0.608,0.29-0.971,0.236
	c-0.362-0.054-0.649-0.223-0.86-0.508l-5.455-7.359C0.38,19.554,0.301,19.231,0.355,18.868z"/>
</svg>
