<?xml version="1.0" encoding="utf-8"?>
<!-- Generator: Adobe Illustrator 17.0.1, SVG Export Plug-In . SVG Version: 6.00 Build 0)  -->
<!DOCTYPE svg PUBLIC "-//W3C//DTD SVG 1.1//EN" "http://www.w3.org/Graphics/SVG/1.1/DTD/svg11.dtd">
<svg version="1.1" id="Layer_1" xmlns="http://www.w3.org/2000/svg" xmlns:xlink="http://www.w3.org/1999/xlink" x="0px" y="0px"
	 width="28px" height="28px" viewBox="0 0 28 28" enable-background="new 0 0 28 28" xml:space="preserve">
<path fill="#6C6C6C" d="M14.64,18.675c-0.753,0.734-1.499,1.455-2.239,2.181c-0.258,0.255-0.549,0.395-0.92,0.376
	c-0.254-0.014-0.395-0.125-0.473-0.365c-0.567-1.759-1.142-3.512-1.705-5.272c-0.055-0.171-0.136-0.254-0.308-0.308
	C7.662,14.88,6.329,14.463,5,14.04c-0.204-0.065-0.411-0.151-0.588-0.271c-0.273-0.185-0.313-0.487-0.068-0.705
	c0.226-0.2,0.496-0.375,0.778-0.486c1.632-0.646,3.272-1.272,4.909-1.904c4.155-1.604,8.311-3.208,12.466-4.812
	c0.79-0.306,1.397,0.125,1.315,0.979c-0.053,0.547-0.194,1.084-0.308,1.623c-0.903,4.26-1.805,8.521-2.712,12.781
	c-0.215,1.011-0.925,1.276-1.759,0.662c-1.394-1.028-2.787-2.058-4.18-3.087C14.785,18.775,14.716,18.728,14.64,18.675z
	 M11.511,19.968c0.016-0.005,0.031-0.009,0.047-0.013c0.009-0.04,0.021-0.079,0.025-0.119c0.089-0.966,0.184-1.931,0.262-2.898
	c0.017-0.215,0.091-0.369,0.254-0.514c1.285-1.149,2.563-2.305,3.842-3.46c1.416-1.278,2.834-2.554,4.245-3.836
	c0.088-0.079,0.124-0.214,0.183-0.323c-0.133-0.015-0.276-0.068-0.396-0.037C19.808,8.812,19.652,8.907,19.505,9
	c-3.126,1.969-6.25,3.942-9.379,5.907c-0.177,0.111-0.21,0.205-0.142,0.4c0.231,0.663,0.441,1.331,0.658,1.999
	C10.932,18.193,11.221,19.081,11.511,19.968z"/>
</svg>
