<?xml version="1.0" encoding="utf-8"?>
<!-- Generator: Adobe Illustrator 17.0.1, SVG Export Plug-In . SVG Version: 6.00 Build 0)  -->
<!DOCTYPE svg PUBLIC "-//W3C//DTD SVG 1.1//EN" "http://www.w3.org/Graphics/SVG/1.1/DTD/svg11.dtd">
<svg version="1.1" id="Layer_1" xmlns="http://www.w3.org/2000/svg" xmlns:xlink="http://www.w3.org/1999/xlink" x="0px" y="0px"
	 width="28px" height="28px" viewBox="0 0 28 28" enable-background="new 0 0 28 28" xml:space="preserve">
<title>twitter</title>
<path fill="#FFFFFF" d="M22.07,9.356c-0.593,0.265-1.232,0.441-1.901,0.52c0.684-0.41,1.207-1.059,1.456-1.831
	c-0.64,0.378-1.349,0.655-2.102,0.804c-0.605-0.643-1.465-1.044-2.417-1.044c-1.828,0-3.31,1.482-3.31,3.31
	c0,0.258,0.028,0.51,0.085,0.754c-2.752-0.138-5.191-1.457-6.824-3.46C6.773,8.896,6.61,9.466,6.61,10.071
	c0,1.147,0.583,2.162,1.472,2.755c-0.542-0.016-1.053-0.167-1.5-0.413c0,0.013,0,0.028,0,0.041c0,1.604,1.142,2.944,2.657,3.246
	c-0.277,0.075-0.57,0.117-0.873,0.117c-0.215,0-0.419-0.022-0.624-0.06c0.422,1.314,1.645,2.272,3.092,2.301
	c-1.135,0.888-2.559,1.418-4.113,1.418c-0.267,0-0.53-0.016-0.791-0.048c1.469,0.942,3.209,1.488,5.078,1.488
	c6.09,0,9.421-5.046,9.421-9.421c0-0.145-0.003-0.287-0.009-0.428C21.064,10.604,21.626,10.022,22.07,9.356L22.07,9.356z"/>
</svg>
